<?xml version="1.0" encoding="utf-8"?>
<!-- Generator: Adobe Illustrator 24.0.2, SVG Export Plug-In . SVG Version: 6.00 Build 0)  -->
<svg version="1.1" id="Layer_1" xmlns="http://www.w3.org/2000/svg" xmlns:xlink="http://www.w3.org/1999/xlink" x="0px" y="0px"
	 viewBox="0 0 480 480" style="enable-background:new 0 0 480 480;" xml:space="preserve">
<style type="text/css">
	.st0{fill:#E040FB;}
	.st1{fill:#020F16;}
</style>
<path class="st0" d="M6,58C6,29.3,29.3,6,58,6h364c28.7,0,52,23.3,52,52v364c0,28.7-23.3,52-52,52H58c-28.7,0-52-23.3-52-52V58z"/>
<path class="st1" d="M45,45v390h390V45H45z M201.2,177.3h-26v57.6h25.6c7.1,0,12.6-2.3,16.5-7c3.9-4.7,5.8-11.4,5.8-20.3
	c0-9.2-2-16.6-6-22C213.2,180.1,207.9,177.4,201.2,177.3z M244.7,250.3C234,260.8,219.1,266,200.1,266h-24.9v65H136V146.2h64.8
	c18.3,0,32.9,5.7,43.7,17c10.9,11.3,16.3,26.1,16.3,44.2S255.5,239.8,244.7,250.3z M359.6,228.3l-11.7-1.3c-10.4,0-16.9,3.9-19.5,13
	v91H292V193.2h33.8l1.3,14.3c5.2-11.7,13-16.9,23.4-16.9c3.9,0,7.8,0,10.4,1.3L359.6,228.3z"/>
</svg>
