<?xml version="1.0" standalone="no"?>
<!DOCTYPE svg PUBLIC "-//W3C//DTD SVG 20010904//EN"
 "http://www.w3.org/TR/2001/REC-SVG-20010904/DTD/svg10.dtd">
<svg version="1.0" xmlns="http://www.w3.org/2000/svg"
 width="1080.000000pt" height="1080.000000pt" viewBox="0 0 1080.000000 1080.000000"
 preserveAspectRatio="xMidYMid meet">
<metadata>
Created by potrace 1.14, written by Peter Selinger 2001-2017
</metadata>
<g transform="translate(0.000000,1080.000000) scale(0.100000,-0.100000)"
fill="#000000" stroke="none">
<path d="M0 5400 l0 -5400 5400 0 5400 0 0 5400 0 5400 -5400 0 -5400 0 0
-5400z m2358 3290 c4 1 18 7 32 15 14 8 28 14 33 15 4 0 7 -380 7 -845 l0
-845 505 0 504 0 3 -107 3 -108 43 -3 42 -3 -2 -407 -3 -407 -548 -3 -547 -2
2 -1330 3 -1329 45 -46 c102 -104 266 -138 493 -101 127 21 244 61 387 132 68
35 125 62 126 61 2 -2 -22 -184 -31 -234 -7 -41 0 -41 65 -3 27 16 50 27 50
23 0 -12 -111 -838 -115 -859 -4 -16 -29 -31 -102 -62 -270 -111 -529 -162
-823 -162 -517 0 -830 200 -970 620 -18 52 -45 127 -60 165 -35 90 -66 224
-79 347 -7 63 -11 564 -11 1437 l0 1341 -317 2 -318 3 -3 113 -3 112 -39 0
-40 0 0 405 0 405 360 0 360 0 2 730 3 730 465 224 465 223 3 -123 c1 -68 6
-124 10 -124z m5178 0 c2 0 20 7 39 14 l35 15 0 -3265 0 -3264 -470 0 -470 0
0 110 0 110 -40 0 -40 0 0 3043 0 3043 468 220 467 220 3 -123 c1 -68 5 -123
8 -123z m-2538 -5076 c42 -8 115 -34 161 -56 69 -33 101 -57 176 -132 100
-100 142 -164 175 -271 12 -38 35 -99 51 -135 43 -99 59 -174 59 -280 0 -169
-54 -308 -167 -430 -134 -145 -294 -219 -488 -227 -139 -6 -230 12 -345 68
-120 59 -241 180 -298 300 -22 46 -43 100 -47 119 -4 19 -20 65 -36 101 -44
103 -59 173 -59 286 0 120 12 185 50 270 134 298 443 453 768 387z m4407 1
c222 -46 438 -237 504 -445 13 -41 39 -109 58 -151 115 -258 65 -536 -132
-732 -71 -71 -126 -110 -208 -147 -131 -59 -294 -75 -445 -44 -232 47 -433
233 -497 459 -9 33 -32 96 -50 140 -44 104 -59 196 -52 310 12 174 71 302 202
431 132 131 278 191 470 193 44 0 112 -6 150 -14z"/>
</g>
</svg>
